PathFileType	4	(X/Y/Z)	C:/Users/beibeiliu/ov580/test_trc/User1\sequence.5_training_dense_right.trc
DataRate	CameraRate	NumFrames	NumMarkers	Units	OrigDataRate	OrigDataStartFrame	OrigNumFrames
120	120	14	19	mm	120	135	269
Frame#	Time	ThumbCMC			ThumbMCP			ThumbIP			ThumbTip			IndexMCP			IndexPIP			IndexTip			MiddleMCP			MiddlePIP			MiddleTip			RingMCP			RingPIP			RingTip			PinkyMCP			PinkyPIP			PinkyTip			BackHand1			BackHand2			BackHand3	
		X0	Y0	Z0	X1	Y1	Z1	X2	Y2	Z2	X3	Y3	Z3	X4	Y4	Z4	X5	Y5	Z5	X6	Y6	Z6	X7	Y7	Z7	X8	Y8	Z8	X9	Y9	Z9	X10	Y10	Z10	X11	Y11	Z11	X12	Y12	Z12	X13	Y13	Z13	X14	Y14	Z14	X15	Y15	Z15	X16	Y16	Z16	X17	Y17	Z17	X18	Y18	Z18	
134	1.11667	169.11	90.212	44.2655	138.579	115.618	41.0098	109.956	128.397	29.4897	81.4521	120.686	25.7516	125.958	79.0916	-27.8832	109.837	82.9249	-46.5032	86.1536	79.0411	-64.7916	96.6777	83.4485	-11.3289	82.6274	104.079	14.6858	112.632	95.3777	43.5684	86.3753	69.7382	7.73491	76.7703	90.871	31.1547	100.383	98.5429	58.7897	84.2851	50.2044	23.8995	83.3735	77.3838	41.9628	106.306	88.181	54.1385	139.507	32.3116	19.449	161.119	23.133	47.4525	169.297	51.2645	23.7317	
135	1.125	167.952	91.0732	41.3578	136.382	117.059	39.8667	106.879	124.001	29.2158	80.9643	114.043	27.046	126.71	77.2528	-28.1413	105.177	73.0507	-43.9527	84.0233	68.8699	-59.8788	92.5536	77.172	-9.12653	80.2732	97.8964	15.1752	106.512	94.8767	42.9567	83.8551	66.3329	10.4053	77.6102	87.6335	35.4441	95.8997	91.3876	58.4007	84.8055	46.8604	26.4557	82.2006	72.099	45.969	107.419	83.4802	58.1352	136.088	29.7395	18.9476	163.836	20.2171	46.039	166.842	52.2035	20.8739	
136	1.13333	167.393	89.9951	43.1853	132.757	109.736	38.2008	105.383	114.812	29.7093	78.5369	107.35	26.5345	122.998	68.6663	-25.0389	105.798	70.1781	-44.7758	81.0107	61.65	-60.408	92.1483	70.4101	-8.02266	78.3398	92.6683	12.4869	104.587	89.7762	42.6377	84.4301	55.7014	12.1069	75.6691	78.5277	35.1458	97.2662	86.8617	60.8224	84.3403	41.1689	27.1401	82.2124	65.3779	46.9807	108.826	78.7876	56.1552	137.907	25.3337	19.1008	162.891	17.6934	49.1578	168.008	48.8676	20.6034	
137	1.14167	164.792	90.3349	41.939	128.563	108.155	35.8493	99.8961	112.559	25.2617	76.6718	100.628	27.0543	119.365	64.2053	-28.8454	102.128	63.0906	-44.571	82.8203	55.7101	-60.1545	91.3362	64.3478	-7.50637	77.442	88.5836	17.1856	105.485	87.2239	41.5658	81.9706	51.4889	13.2403	75.7315	76.4154	37.6195	99.6611	83.6496	59.7279	84.1173	38.1805	29.2777	81.6335	59.9932	46.1848	109.031	71.5538	60.8719	139.555	19.6098	22.6246	167.831	20.0136	45.0384	168.749	51.1378	19.9745	
138	1.15	161.848	89.9947	40.1162	125.95	106.827	35.618	96.2027	107.829	25.3566	68.602	94.882	25.091	118.019	58.5822	-28.3933	99.8809	55.3871	-46.7443	81.1325	45.5997	-58.4829	89.4919	58.6689	-8.65872	75.9689	80.1446	17.3505	100.505	78.7392	42.3799	86.0329	43.6169	12.7494	73.6102	66.4648	39.1138	97.5279	78.3432	58.6773	85.7396	30.9893	29.4952	82.339	54.0025	45.685	108.704	68.7781	59.3315	142.893	20.4124	19.5103	168.351	17.1832	46.1399	169.688	49.5165	23.2476	
139	1.15833	158.74	85.6781	40.5089	121.447	98.8593	33.7182	92.1507	100.848	25.1899	70.186	85.8272	25.5499	119.08	57.0551	-31.0348	98.9063	49.5155	-47.6273	81.858	39.8309	-58.6514	90.5701	51.6324	-10.4332	72.8427	71.0015	15.7827	98.7746	72.7978	41.3401	87.8165	38.7202	11.1586	72.6901	57.4481	35.1071	96.4633	70.2327	59.4645	87.1208	22.6652	31.5208	81.3594	45.411	44.3408	107.546	63.5245	58.1712	145.171	19.2865	20.3066	172.508	17.8741	46.5093	169.745	47.7596	22.1402	
140	1.16667	155.196	83.8684	36.6207	117.511	99.8177	33.3539	90.8224	94.7811	26.5203	66.3242	78.3932	23.5525	120.079	51.8489	-28.9839	98.3231	38.9295	-46.5152	81.558	30.87	-62.1523	93.4594	43.2692	-11.5439	70.1503	63.1477	11.7345	94.9304	67.0733	41.2196	85.073	28.3953	12.7701	72.0405	52.1156	33.7604	94.4061	62.9763	59.7685	92.5293	14.32	29.751	81.2602	37.874	43.4324	108.733	59.1882	56.4203	146.878	13.2362	25.6638	171.772	18.0996	46.6783	170.16	49.6309	20.2748	
141	1.175	153.507	86.7331	38.3917	112.12	91.6545	31.9564	83.967	88.6184	22.8884	64.1705	70.3322	24.2728	118.155	46.6434	-33.0309	101.298	32.9365	-45.0732	83.235	20.6743	-59.4813	93.2312	34.1009	-10.6376	68.7704	54.6313	7.71772	90.2983	63.4887	38.4891	86.7889	26.5662	10.3555	72.2652	44.0485	35.5033	89.7469	58.9613	54.9504	93.8268	6.89155	31.3705	83.56	33.4964	46.4219	104.851	51.136	58.2704	149.59	14.8155	21.0189	176.05	16.3407	49.0924	168.737	44.9306	21.5609	
142	1.18333	146.567	84.2508	34.2514	107.814	91.0623	31.8838	80.0452	81.3248	21.8156	61.215	63.9072	23.4515	118.285	41.0257	-30.9523	102.194	31.3164	-46.8954	87.4395	17.0836	-62.0607	91.8874	29.1458	-13.1005	67.3973	41.5558	6.44275	90.9358	57.8106	38.1737	86.1626	18.3654	10.6571	71.4599	36.2331	29.5606	92.8778	52.9005	56.2846	94.8631	3.43954	29.7848	83.539	26.2909	42.7212	105.589	47.4914	59.1507	152.902	14.1276	24.4008	175.476	15.3592	46.0724	169.524	48.2822	18.6842	
143	1.19167	142.695	79.8041	34.6044	104.415	84.8957	32.4135	75.454	74.0199	20.7358	56.6095	52.4377	18.0825	119.416	41.105	-30.9797	102.47	27.1426	-51.1609	90.8407	9.55053	-63.7859	95.8833	23.5981	-14.9926	67.1936	33.5702	4.62576	87.6727	52.3169	36.0141	93.869	10.7094	7.13072	72.8653	28.34	34.3913	90.6582	45.0257	53.2572	100.629	-3.837	27.4198	85.2857	17.3134	43.3274	107.063	43.1109	51.7467	154.309	12.8388	17.8317	178.683	22.1519	49.5679	165.888	48.5359	20.4898	
144	1.2	139.755	80.6603	38.9883	97.5641	79.3699	31.2807	74.571	64.7636	19.6644	54.772	45.1385	16.4507	119.362	38.3952	-36.02	107.085	22.2135	-52.9727	97.7259	11.8322	-69.3764	99.2241	22.7126	-18.3728	68.9233	27.8535	2.4984	84.6947	44.5104	32.7689	94.1166	5.97233	4.42267	75.1461	17.1966	27.008	92.8582	37.0463	52.5172	103.308	-9.42299	24.2088	88.1817	14.4844	40.5627	105.147	35.1676	49.2585	154.842	13.3516	17.4025	180.4	25.5219	47.9726	166.414	50.3763	17.6927	
145	1.20833	132.58	78.0351	37.8749	93.1	69.7665	27.9209	69.8644	56.7596	17.4446	55.1007	33.0438	11.4468	121.228	35.5775	-36.531	112.943	24.2484	-54.4294	105.194	9.71696	-74.1544	102.339	17.0762	-21.8571	70.3201	19.5845	-2.61491	85.7277	35.5	30.8805	99.2089	1.71307	-0.533252	76.452	12.3718	24.5617	93.3951	28.9778	48.9362	109.799	-11.7939	17.8792	90.5426	4.51023	34.5323	106.586	27.9706	51.782	160.429	12.748	19.2914	179.389	27.1659	46.3411	165.178	51.2031	19.8696	
146	1.21667	126.147	75.1935	35.1016	91.5676	63.8885	28.7766	69.8519	46.5746	12.5417	58.3968	24.0485	8.91839	123.169	38.8817	-41.1	116.362	27.7925	-56.3166	113.02	6.57881	-77.4153	105.402	14.9943	-23.8873	74.2617	13.1155	-4.42424	91.0554	31.7896	28.8475	106.451	-2.11341	-2.78014	80.8962	5.26578	20.9683	92.497	22.6456	45.146	112.125	-15.6865	14.9251	94.2206	0.604132	32.0918	109.644	25.5613	44.8826	162.439	18.6846	13.4081	177.731	29.0174	45.8344	162.004	55.7705	22.7368	
147	1.225	120.479	73.9813	36.6715	87.7502	56.9254	27.7996	70.8802	38.7994	11.4465	63.4212	14.0235	3.50647	126.286	38.2444	-37.4535	121.667	25.4843	-58.4853	119.65	9.53683	-80.18	108.517	10.1181	-27.114	77.2191	9.18055	-6.73766	91.8128	29.6851	24.0749	110.586	-2.83097	-6.82243	85.1052	-2.26651	15.1683	92.9457	16.3994	42.582	122.199	-14.3034	9.4274	99.1771	-7.66589	27.5589	105.912	18.0262	46.7048	165.072	22.0355	15.8257	176.597	33.8487	44.4779	160.284	57.2216	24.5056	
